<svg width="48" height="48" viewBox="0 0 48 48" fill="none" xmlns="http://www.w3.org/2000/svg">
<path d="M20.4844 27.4688C20.4844 29.2781 19.1719 29.85 17.5594 29.85H13.3312V24.8906H17.6437C19.3875 24.9 20.4844 25.6219 20.4844 27.4688ZM19.7625 19.7531C19.7625 18.0937 18.4781 17.7 17.0531 17.7H13.3406V21.9H17.3438C18.7594 21.9 19.7625 21.2812 19.7625 19.7531ZM32.1656 21.9281C30.45 21.9281 29.3062 22.9969 29.1937 24.7125H35.025C34.8656 22.9781 33.9656 21.9281 32.1656 21.9281ZM45 7.5V40.5C45 42.9844 42.9844 45 40.5 45H7.5C5.01562 45 3 42.9844 3 40.5V7.5C3 5.01562 5.01562 3 7.5 3H40.5C42.9844 3 45 5.01562 45 7.5ZM28.4719 17.3438H35.7656V15.5719H28.4719V17.3438ZM24.4406 27.6844C24.4406 25.425 23.3719 23.475 21.1594 22.8469C22.7719 22.0781 23.6156 21.1875 23.6156 19.3781C23.6156 15.7969 20.9438 14.925 17.8594 14.925H9.375V32.925H18.1031C21.375 32.9063 24.4406 31.3406 24.4406 27.6844ZM38.625 26.2969C38.625 22.4438 36.3656 19.2281 32.2875 19.2281C28.3125 19.2281 25.6219 22.2094 25.6219 26.1281C25.6219 30.1875 28.1812 32.9719 32.2875 32.9719C35.4 32.9719 37.4156 31.575 38.3906 28.5844H35.2312C34.8844 29.7 33.4875 30.2812 32.4 30.2812C30.3 30.2812 29.2031 29.0531 29.2031 26.9719H38.5969C38.6063 26.7563 38.625 26.5219 38.625 26.2969Z" fill="#F9F9F9"/>
</svg>
